{
	"accessors" : 
	[
		{
			"bufferView" : 2,
			"byteOffset" : 0,
			"componentType" : 5126,
			"count" : 168,
			"max" : 
			[
				0.8751375675201416,
				0.1219857111573219,
				0.2932161688804626,
				1
			],
			"min" : 
			[
				0.006584956776350737,
				0.006584956776350737,
				0.006584956776350737,
				1
			],
			"name" : "accessor_color_m0-PolyPaper23_-15622",
			"type" : "VEC4"
		},
		{
			"bufferView" : 0,
			"byteOffset" : 0,
			"componentType" : 5123,
			"count" : 252,
			"max" : 
			[
				167
			],
			"min" : 
			[
				0
			],
			"name" : "accessor_indices_0_m0-PolyPaper23_-15622",
			"type" : "SCALAR"
		},
		{
			"bufferView" : 1,
			"byteOffset" : 2016,
			"componentType" : 5126,
			"count" : 168,
			"max" : 
			[
				0.9949576,
				0.9949533,
				0.9961545000000001
			],
			"min" : 
			[
				-0.9930122,
				-0.9998416,
				-0.9961545000000001
			],
			"name" : "accessor_normal_m0-PolyPaper23_-15622",
			"type" : "VEC3"
		},
		{
			"bufferView" : 1,
			"byteOffset" : 0,
			"componentType" : 5126,
			"count" : 168,
			"max" : 
			[
				0.3853168,
				1.988161,
				-0.4092773
			],
			"min" : 
			[
				0.3077155,
				1.752177,
				-0.4788323
			],
			"name" : "accessor_position_m0-PolyPaper23_-15622",
			"type" : "VEC3"
		}
	],
	"asset" : 
	{
		"copyright" : "Unknown",
		"generator" : "glTF 1-to-2 Upgrader for Google Blocks",
		"version" : "2.0"
	},
	"bufferViews" : 
	[
		{
			"buffer" : 0,
			"byteLength" : 504,
			"byteOffset" : 0,
			"name" : "ushortBufferView",
			"target" : 34963
		},
		{
			"buffer" : 0,
			"byteLength" : 4032,
			"byteOffset" : 504,
			"byteStride" : 12,
			"name" : "vec3BufferView",
			"target" : 34962
		},
		{
			"buffer" : 0,
			"byteLength" : 2688,
			"byteOffset" : 4536,
			"byteStride" : 16,
			"name" : "vec4BufferView",
			"target" : 34962
		}
	],
	"buffers" : 
	[
		{
			"byteLength" : 7224,
			"name" : "lipstick",
			"uri" : "https://github.com/jaffa777/vr-room/blob/master/lipstick.bin"
		}
	],
	"materials" : 
	[
		{
			"alphaMode" : "OPAQUE",
			"doubleSided" : false,
			"name" : "BlocksPaper",
			"pbrMetallicRoughness" : 
			{
				"baseColorFactor" : 
				[
					1,
					1,
					1,
					1
				],
				"metallicFactor" : 0,
				"roughnessFactor" : 0.6
			}
		},
		{
			"alphaMode" : "BLEND",
			"doubleSided" : false,
			"name" : "BlocksGlass",
			"pbrMetallicRoughness" : 
			{
				"baseColorFactor" : 
				[
					0.2,
					0.2,
					1,
					0.3
				],
				"metallicFactor" : 1,
				"roughnessFactor" : 0.4
			}
		},
		{
			"alphaMode" : "OPAQUE",
			"doubleSided" : true,
			"name" : "BlocksGem",
			"pbrMetallicRoughness" : 
			{
				"baseColorFactor" : 
				[
					1,
					0.4,
					1,
					1
				],
				"metallicFactor" : 0,
				"roughnessFactor" : 0.1
			}
		}
	],
	"meshes" : 
	[
		{
			"name" : "mesh_m0-PolyPaper23_-15622",
			"primitives" : 
			[
				{
					"attributes" : 
					{
						"COLOR_0" : 0,
						"NORMAL" : 2,
						"POSITION" : 3
					},
					"indices" : 1,
					"material" : 0,
					"mode" : 4
				}
			]
		}
	],
	"nodes" : 
	[
		{
			"matrix" : 
			[
				1,
				0,
				0,
				0,
				0,
				1,
				0,
				0,
				0,
				0,
				1,
				0,
				0,
				0,
				0,
				1
			],
			"mesh" : 0,
			"name" : "node_MeshObject-255728128-PolyPaper23"
		}
	],
	"scene" : 0,
	"scenes" : 
	[
		{
			"extras" : {},
			"name" : "defaultScene",
			"nodes" : 
			[
				0
			]
		}
	]
}