{
	"accessors" : 
	[
		{
			"bufferView" : 2,
			"byteOffset" : 0,
			"componentType" : 5126,
			"count" : 3850,
			"max" : 
			[
				1,
				1,
				1,
				1
			],
			"min" : 
			[
				0.8751375675201416,
				0.1219857111573219,
				0.2932161688804626,
				1
			],
			"name" : "accessor_color_m0-PolyPaper7_-1580260",
			"type" : "VEC4"
		},
		{
			"bufferView" : 2,
			"byteOffset" : 61600,
			"componentType" : 5126,
			"count" : 96,
			"max" : 
			[
				1,
				1,
				1,
				1
			],
			"min" : 
			[
				1,
				1,
				1,
				1
			],
			"name" : "accessor_color_m1-PolyGem25_-1579682",
			"type" : "VEC4"
		},
		{
			"bufferView" : 0,
			"byteOffset" : 0,
			"componentType" : 5123,
			"count" : 5754,
			"max" : 
			[
				3849
			],
			"min" : 
			[
				0
			],
			"name" : "accessor_indices_0_m0-PolyPaper7_-1580260",
			"type" : "SCALAR"
		},
		{
			"bufferView" : 0,
			"byteOffset" : 11508,
			"componentType" : 5123,
			"count" : 144,
			"max" : 
			[
				95
			],
			"min" : 
			[
				0
			],
			"name" : "accessor_indices_0_m1-PolyGem25_-1579682",
			"type" : "SCALAR"
		},
		{
			"bufferView" : 1,
			"byteOffset" : 46200,
			"componentType" : 5126,
			"count" : 3850,
			"max" : 
			[
				0.9918538,
				0.9994577,
				0.9979377
			],
			"min" : 
			[
				-0.9918535000000001,
				-0.9994577,
				-0.9985861
			],
			"name" : "accessor_normal_m0-PolyPaper7_-1580260",
			"type" : "VEC3"
		},
		{
			"bufferView" : 1,
			"byteOffset" : 93552,
			"componentType" : 5126,
			"count" : 96,
			"max" : 
			[
				0.8075149,
				0.9997461,
				0.8087077
			],
			"min" : 
			[
				-0.807515,
				-0.9997461,
				-0.8087067
			],
			"name" : "accessor_normal_m1-PolyGem25_-1579682",
			"type" : "VEC3"
		},
		{
			"bufferView" : 1,
			"byteOffset" : 0,
			"componentType" : 5126,
			"count" : 3850,
			"max" : 
			[
				-0.007289859,
				1.36074,
				0.9836998
			],
			"min" : 
			[
				-0.5194174,
				1.052713,
				0.5612191
			],
			"name" : "accessor_position_m0-PolyPaper7_-1580260",
			"type" : "VEC3"
		},
		{
			"bufferView" : 1,
			"byteOffset" : 92400,
			"componentType" : 5126,
			"count" : 96,
			"max" : 
			[
				-0.09736428,
				1.338244,
				0.8980256
			],
			"min" : 
			[
				-0.4057788,
				1.153585,
				0.636467
			],
			"name" : "accessor_position_m1-PolyGem25_-1579682",
			"type" : "VEC3"
		}
	],
	"asset" : 
	{
		"copyright" : "Unknown",
		"generator" : "glTF 1-to-2 Upgrader for Google Blocks",
		"version" : "2.0"
	},
	"bufferViews" : 
	[
		{
			"buffer" : 0,
			"byteLength" : 11796,
			"byteOffset" : 0,
			"name" : "ushortBufferView",
			"target" : 34963
		},
		{
			"buffer" : 0,
			"byteLength" : 94704,
			"byteOffset" : 11796,
			"byteStride" : 12,
			"name" : "vec3BufferView",
			"target" : 34962
		},
		{
			"buffer" : 0,
			"byteLength" : 63136,
			"byteOffset" : 106500,
			"byteStride" : 16,
			"name" : "vec4BufferView",
			"target" : 34962
		}
	],
	"buffers" : 
	[
		{
			"byteLength" : 169636,
			"name" : "model",
			"uri" : "https://raw.githubusercontent.com/jaffa777/vr-room/master/window/nook.bin"
		}
	],
	"materials" : 
	[
		{
			"alphaMode" : "OPAQUE",
			"doubleSided" : false,
			"name" : "BlocksPaper",
			"pbrMetallicRoughness" : 
			{
				"baseColorFactor" : 
				[
					1,
					1,
					1,
					1
				],
				"metallicFactor" : 0,
				"roughnessFactor" : 0.6
			}
		},
		{
			"alphaMode" : "BLEND",
			"doubleSided" : false,
			"name" : "BlocksGlass",
			"pbrMetallicRoughness" : 
			{
				"baseColorFactor" : 
				[
					0.2,
					0.2,
					1,
					0.3
				],
				"metallicFactor" : 1,
				"roughnessFactor" : 0.4
			}
		},
		{
			"alphaMode" : "OPAQUE",
			"doubleSided" : true,
			"name" : "BlocksGem",
			"pbrMetallicRoughness" : 
			{
				"baseColorFactor" : 
				[
					1,
					0.4,
					1,
					1
				],
				"metallicFactor" : 0,
				"roughnessFactor" : 0.1
			}
		}
	],
	"meshes" : 
	[
		{
			"name" : "mesh_m0-PolyPaper7_-1580260",
			"primitives" : 
			[
				{
					"attributes" : 
					{
						"COLOR_0" : 0,
						"NORMAL" : 4,
						"POSITION" : 6
					},
					"indices" : 2,
					"material" : 0,
					"mode" : 4
				}
			]
		},
		{
			"name" : "mesh_m1-PolyGem25_-1579682",
			"primitives" : 
			[
				{
					"attributes" : 
					{
						"COLOR_0" : 1,
						"NORMAL" : 5,
						"POSITION" : 7
					},
					"indices" : 3,
					"material" : 2,
					"mode" : 4
				}
			]
		}
	],
	"nodes" : 
	[
		{
			"matrix" : 
			[
				1,
				0,
				0,
				0,
				0,
				1,
				0,
				0,
				0,
				0,
				1,
				0,
				0,
				0,
				0,
				1
			],
			"mesh" : 0,
			"name" : "node_MeshObject12678528-PolyPaper7"
		},
		{
			"matrix" : 
			[
				1,
				0,
				0,
				0,
				0,
				1,
				0,
				0,
				0,
				0,
				1,
				0,
				0,
				0,
				0,
				1
			],
			"mesh" : 1,
			"name" : "node_MeshObject798911232-PolyGem25"
		}
	],
	"scene" : 0,
	"scenes" : 
	[
		{
			"extras" : {},
			"name" : "defaultScene",
			"nodes" : 
			[
				0,
				1
			]
		}
	]
}
