{
	"accessors" : 
	[
		{
			"bufferView" : 2,
			"byteOffset" : 0,
			"componentType" : 5126,
			"count" : 9992,
			"max" : 
			[
				1,
				1,
				1,
				1
			],
			"min" : 
			[
				0,
				0.006584956776350737,
				0.006584956776350737,
				1
			],
			"name" : "accessor_color_m0-PolyPaper2_-753454",
			"type" : "VEC4"
		},
		{
			"bufferView" : 2,
			"byteOffset" : 159872,
			"componentType" : 5126,
			"count" : 9884,
			"max" : 
			[
				1,
				1,
				1,
				1
			],
			"min" : 
			[
				0,
				0.006584956776350737,
				0.006584956776350737,
				1
			],
			"name" : "accessor_color_m1-PolyPaper2_-745040",
			"type" : "VEC4"
		},
		{
			"bufferView" : 2,
			"byteOffset" : 318016,
			"componentType" : 5126,
			"count" : 3060,
			"max" : 
			[
				1,
				1,
				1,
				1
			],
			"min" : 
			[
				0,
				0.0384727455675602,
				0.05459228157997131,
				1
			],
			"name" : "accessor_color_m2-PolyPaper11_-754082",
			"type" : "VEC4"
		},
		{
			"bufferView" : 0,
			"byteOffset" : 0,
			"componentType" : 5123,
			"count" : 13386,
			"max" : 
			[
				9991
			],
			"min" : 
			[
				0
			],
			"name" : "accessor_indices_0_m0-PolyPaper2_-753454",
			"type" : "SCALAR"
		},
		{
			"bufferView" : 0,
			"byteOffset" : 26772,
			"componentType" : 5123,
			"count" : 13872,
			"max" : 
			[
				9883
			],
			"min" : 
			[
				0
			],
			"name" : "accessor_indices_0_m1-PolyPaper2_-745040",
			"type" : "SCALAR"
		},
		{
			"bufferView" : 0,
			"byteOffset" : 54516,
			"componentType" : 5123,
			"count" : 4500,
			"max" : 
			[
				3059
			],
			"min" : 
			[
				0
			],
			"name" : "accessor_indices_0_m2-PolyPaper11_-754082",
			"type" : "SCALAR"
		},
		{
			"bufferView" : 1,
			"byteOffset" : 119904,
			"componentType" : 5126,
			"count" : 9992,
			"max" : 
			[
				0.9994194,
				1,
				0.9998428
			],
			"min" : 
			[
				-0.9989871,
				-1,
				-0.9990850999999999
			],
			"name" : "accessor_normal_m0-PolyPaper2_-753454",
			"type" : "VEC3"
		},
		{
			"bufferView" : 1,
			"byteOffset" : 358416,
			"componentType" : 5126,
			"count" : 9884,
			"max" : 
			[
				0.9973225999999999,
				1,
				0.9997346
			],
			"min" : 
			[
				-0.9927959,
				-1,
				-0.9994138
			],
			"name" : "accessor_normal_m1-PolyPaper2_-745040",
			"type" : "VEC3"
		},
		{
			"bufferView" : 1,
			"byteOffset" : 513744,
			"componentType" : 5126,
			"count" : 3060,
			"max" : 
			[
				1,
				1,
				1
			],
			"min" : 
			[
				-1,
				-1,
				-1
			],
			"name" : "accessor_normal_m2-PolyPaper11_-754082",
			"type" : "VEC3"
		},
		{
			"bufferView" : 1,
			"byteOffset" : 0,
			"componentType" : 5126,
			"count" : 9992,
			"max" : 
			[
				2.349406,
				-0.334948,
				0.7535297
			],
			"min" : 
			[
				-1.51839,
				-2.849979,
				-2.29702
			],
			"name" : "accessor_position_m0-PolyPaper2_-753454",
			"type" : "VEC3"
		},
		{
			"bufferView" : 1,
			"byteOffset" : 239808,
			"componentType" : 5126,
			"count" : 9884,
			"max" : 
			[
				2.360869,
				0.2241489,
				0.7042173
			],
			"min" : 
			[
				-1.466989,
				-2.856731,
				-2.379981
			],
			"name" : "accessor_position_m1-PolyPaper2_-745040",
			"type" : "VEC3"
		},
		{
			"bufferView" : 1,
			"byteOffset" : 477024,
			"componentType" : 5126,
			"count" : 3060,
			"max" : 
			[
				2.015842,
				0.05200049,
				0.8399736
			],
			"min" : 
			[
				-1.625983,
				-3.423615,
				-2.446553
			],
			"name" : "accessor_position_m2-PolyPaper11_-754082",
			"type" : "VEC3"
		}
	],
	"asset" : 
	{
		"copyright" : "Unknown",
		"generator" : "glTF 1-to-2 Upgrader for Google Blocks",
		"version" : "2.0"
	},
	"bufferViews" : 
	[
		{
			"buffer" : 0,
			"byteLength" : 63516,
			"byteOffset" : 0,
			"name" : "ushortBufferView",
			"target" : 34963
		},
		{
			"buffer" : 0,
			"byteLength" : 550464,
			"byteOffset" : 63516,
			"byteStride" : 12,
			"name" : "vec3BufferView",
			"target" : 34962
		},
		{
			"buffer" : 0,
			"byteLength" : 366976,
			"byteOffset" : 613980,
			"byteStride" : 16,
			"name" : "vec4BufferView",
			"target" : 34962
		}
	],
	"buffers" : 
	[
		{
			"byteLength" : 980956,
			"name" : "model",
			"uri" : "model.bin"
		}
	],
	"materials" : 
	[
		{
			"alphaMode" : "OPAQUE",
			"doubleSided" : false,
			"name" : "BlocksPaper",
			"pbrMetallicRoughness" : 
			{
				"baseColorFactor" : 
				[
					1,
					1,
					1,
					1
				],
				"metallicFactor" : 0,
				"roughnessFactor" : 0.6
			}
		},
		{
			"alphaMode" : "BLEND",
			"doubleSided" : false,
			"name" : "BlocksGlass",
			"pbrMetallicRoughness" : 
			{
				"baseColorFactor" : 
				[
					0.2,
					0.2,
					1,
					0.3
				],
				"metallicFactor" : 1,
				"roughnessFactor" : 0.4
			}
		},
		{
			"alphaMode" : "OPAQUE",
			"doubleSided" : true,
			"name" : "BlocksGem",
			"pbrMetallicRoughness" : 
			{
				"baseColorFactor" : 
				[
					1,
					0.4,
					1,
					1
				],
				"metallicFactor" : 0,
				"roughnessFactor" : 0.1
			}
		}
	],
	"meshes" : 
	[
		{
			"name" : "mesh_m0-PolyPaper2_-753454",
			"primitives" : 
			[
				{
					"attributes" : 
					{
						"COLOR_0" : 0,
						"NORMAL" : 6,
						"POSITION" : 9
					},
					"indices" : 3,
					"material" : 0,
					"mode" : 4
				}
			]
		},
		{
			"name" : "mesh_m1-PolyPaper2_-745040",
			"primitives" : 
			[
				{
					"attributes" : 
					{
						"COLOR_0" : 1,
						"NORMAL" : 7,
						"POSITION" : 10
					},
					"indices" : 4,
					"material" : 0,
					"mode" : 4
				}
			]
		},
		{
			"name" : "mesh_m2-PolyPaper11_-754082",
			"primitives" : 
			[
				{
					"attributes" : 
					{
						"COLOR_0" : 2,
						"NORMAL" : 8,
						"POSITION" : 11
					},
					"indices" : 5,
					"material" : 0,
					"mode" : 4
				}
			]
		}
	],
	"nodes" : 
	[
		{
			"matrix" : 
			[
				1,
				0,
				0,
				0,
				0,
				1,
				0,
				0,
				0,
				0,
				1,
				0,
				0,
				0,
				0,
				1
			],
			"mesh" : 2,
			"name" : "node_MeshObject-1759936640-PolyPaper11"
		},
		{
			"matrix" : 
			[
				1,
				0,
				0,
				0,
				0,
				1,
				0,
				0,
				0,
				0,
				1,
				0,
				0,
				0,
				0,
				1
			],
			"mesh" : 0,
			"name" : "node_MeshObject1497590528-PolyPaper2"
		},
		{
			"matrix" : 
			[
				1,
				0,
				0,
				0,
				0,
				1,
				0,
				0,
				0,
				0,
				1,
				0,
				0,
				0,
				0,
				1
			],
			"mesh" : 1,
			"name" : "node_MeshObject998026624-PolyPaper2"
		}
	],
	"scene" : 0,
	"scenes" : 
	[
		{
			"extras" : {},
			"name" : "defaultScene",
			"nodes" : 
			[
				1,
				2,
				0
			]
		}
	]
}